<svg
  xmlns="http://www.w3.org/2000/svg"
  width="24"
  height="24"
  viewBox="0 0 24 24"
  fill="none"
>
  <path
    d="M12 2.12963L14.9506 8.10731C15.0234 8.25474 15.164 8.35697 15.3267 8.38074L21.9258 9.3453L17.1511 13.9958C17.0332 14.1107 16.9794 14.2763 17.0072 14.4385L18.1339 21.0078L12.2327 17.9045C12.087 17.8278 11.913 17.8278 11.7673 17.9045L5.86609 21.0078L6.9928 14.4385C7.02063 14.2763 6.9668 14.1107 6.84887 13.9958L2.07421 9.3453L8.67331 8.38074C8.83599 8.35697 8.97658 8.25474 9.04935 8.10731L12 2.12963Z"
    stroke="#FFA726"
    stroke-linecap="round"
    stroke-linejoin="round"
  />
  <path
    d="M8.67331 8.38074C8.83599 8.35697 8.97658 8.25474 9.04935 8.10731L11.5 3.14257V18.045L5.86609 21.0078L6.9928 14.4385C7.02063 14.2763 6.9668 14.1107 6.84887 13.9958L2.07421 9.3453L8.67331 8.38074Z"
    fill="#FFA726"
    stroke="#FFA726"
    stroke-linecap="round"
    stroke-linejoin="round"
  />
</svg>
